# AST/ASF file generated using VICON BodyLanguage
# -----------------------------------------------
:version 1.10
:name VICON
:units
  mass 1.0
  length 0.45
  angle deg
:documentation
   .ast/.asf automatically generated from VICON data using
   VICON BodyBuilder and BodyLanguage model FoxedUp or BRILLIANT.MOD
:root
   order TX TY TZ RX RY RZ
   axis XYZ
   position 0 0 0  
   orientation 0 0 0 
:bonedata
  begin
     id 1 
     name lhipjoint
     direction 0.734343 -0.627749 0.258209 
     length 2.5437 
     axis 0 0 0  XYZ
  end
  begin
     id 2 
     name lfemur
     direction 0.34202 -0.939693 0  
     length 6.7391  
     axis 0 0 20  XYZ
    dof rx ry rz
    limits (-160.0 20.0)
           (-70.0 70.0)
           (-60.0 70.0)
  end
  begin
     id 3 
     name ltibia
     direction 0.34202 -0.939693 0   
     length 7.21536   
     axis 0 0 20   XYZ
    dof rx
    limits (-10.0 170.0)
  end
  begin
     id 4 
     name lfoot
     direction 0.0489572 -0.134509 0.989702   
     length 1.61313   
     axis -90 7.62852e-016 20   XYZ
    dof rx rz
    limits (-45.0 90.0)
           (-70.0 20.0)
  end
  begin
     id 5 
     name ltoes
     direction 1.53451e-011 -4.21692e-011 1   
     length 0.823104   
     axis -90 7.62852e-016 20   XYZ
    dof rx
    limits (-90.0 20.0)
  end
  begin
     id 6 
     name rhipjoint
     direction -0.746398 -0.615468 0.253157   
     length 2.59446  
     axis 0 0 0  XYZ 
  end
  begin
     id 7 
     name rfemur
     direction -0.34202 -0.939693 0   
     length 6.7075   
     axis 0 0 -20   XYZ
    dof rx ry rz
    limits (-160.0 20.0)
           (-70.0 70.0)
           (-70.0 60.0)
  end
  begin
     id 8 
     name rtibia
     direction -0.34202 -0.939693 0   
     length 7.27262   
     axis 0 0 -20   XYZ
    dof rx
    limits (-10.0 170.0)
 end
 begin
     id 9 
     name rfoot
     direction -0.0455203 -0.125066 0.991104   
     length 1.91095  
     axis -90 -7.62852e-016 -20   XYZ
    dof rx rz
    limits (-45.0 90.0)
           (-20.0 70.0)
  end
  begin
     id 10 
     name rtoes
     direction -1.53601e-011 -4.21913e-011 1   
     length 0.969037   
     axis -90 -7.62852e-016 -20   XYZ
    dof rx
    limits (-90.0 20.0)
  end
  begin
     id 11 
     name lowerback
     direction 0.0181546 0.999122 -0.0377542   
     length 1.99916   
     axis 0 0 0   XYZ
    dof rx ry rz
    limits (-20.0 45.0)
           (-30.0 30.0)
           (-30.0 30.0)
  end
  begin
     id 12 
     name upperback
     direction 0.0203486 0.99589 0.0882534   
     length 1.951   
     axis 0 0 0   XYZ
    dof rx ry rz
    limits (-20.0 45.0)
           (-30.0 30.0)
           (-30.0 30.0)
  end
  begin
     id 13 
     name thorax
     direction 0.0131685 0.994241 0.106355   
     length 1.97461   
     axis 0 0 0   XYZ
    dof rx ry rz
    limits (-20.0 45.0)
           (-30.0 30.0)
           (-30.0 30.0)
  end
  begin
     id 14 
     name lowerneck
     direction -0.0281395 0.999325 0.023617   
     length 1.7959   
     axis 0 0 0   XYZ
    dof rx ry rz
    limits (-20.0 45.0)
           (-30.0 30.0)
           (-30.0 30.0)
  end
  begin
     id 15 
     name upperneck
     direction 0.0288721 0.991984 -0.123019   
     length 1.79917   
     axis 0 0 0   XYZ
    dof rx ry rz
    limits (-20.0 45.0)
           (-30.0 30.0)
           (-30.0 30.0)
  end
  begin
     id 16
     name head
     direction 0.0133797 0.998944 -0.0439492  
     length 1.80902  
     axis 0 0 0   XYZ
    dof rx ry rz
    limits (-20.0 45.0)
           (-30.0 30.0)
           (-30.0 30.0)
  end
  begin
     id 17 
     name lclavicle
     direction 0.919195 0.377107 0.113449  
     length 3.17815  
     axis 0 0 0   XYZ
    dof ry rz
    limits (-20.0 10.0)
           (0.0 20.0)
  end
  begin
     id 18 
     name lhumerus
     direction 1 -4.48959e-011 2.13129e-027   
     length 4.84137   
     axis 180 -30 -90   XYZ
    dof rx ry rz
    limits (-60.0 90.0)
           (-90.0 90.0)
           (-90.0 90.0)
  end
  begin
     id 19
     name lradius
     direction 1 -4.48957e-011 -6.30627e-028   
     length 3.2452   
     axis 180 -30 -90   XYZ
    dof rx
    limits (-10.0 170.0)
  end
  begin
     id 20
     name lwrist
     direction 1 -4.4901e-011 9.13299e-027   
     length 1.6226   
     axis -6.84618e-015 90 90   XYZ
    dof ry
    limits (-180.0 0.0)
 end
  begin
     id 21 
     name lhand
     direction 1 -4.48816e-011 1.82293e-026   
     length 0.521221   
     axis -1.16502e-014 90 90   XYZ
    dof rx rz
    limits (-90.0 90.0)
           (-45.0 45.0)
  end
  begin
     id 22 
     name lfingers
     direction 1 -4.49108e-011 3.65687e-026   
     length 0.420221   
     axis -2.33008e-014 90 90   XYZ
    dof rx
    limits (0.0 90.0)
  end
  begin
     id 23
     name lthumb
     direction 0.707107 -6.34943e-011 0.707107   
     length 0.603356   
     axis -90 45 5.69224e-014   XYZ
    dof rx rz
    limits (-45.0 45.0)
           (-45.0 45.0)
  end
  begin
     id 24 
     name rclavicle
     direction -0.90847 0.38596 0.160368   
     length 3.12973  
     axis 0 0 0   XYZ 
    dof ry rz
    limits (-10.0 20.0)
           (-20.0 0.0)
  end
  begin
     id 25 
     name rhumerus
     direction -1 -4.48974e-011 4.47268e-028  
     length 4.72284   
     axis 180 30 90   XYZ
    dof rx ry rz
    limits (-90.0 60.0)
           (-90.0 90.0)
           (-90.0 90.0)
  end
  begin
     id 26 
     name rradius
     direction -1 -4.48969e-011 3.43203e-027   
     length 3.23459   
     axis 180 30 90   XYZ
    dof rx
    limits (-10.0 170.0)
  end
  begin
     id 27 
     name rwrist
     direction -1 -4.48969e-011 9.12911e-027   
     length 1.6173   
     axis -6.84618e-015 -90 -90   XYZ
    dof ry
    limits (-180.0 0.0)
  end
  begin
     id 28
     name rhand
     direction -1 -4.49194e-011 1.83006e-026   
     length 0.307416   
     axis -1.16502e-014 -90 -90   XYZ
    dof rx rz
    limits (-90.0 90.0)
           (-45.0 45.0)
  end
  begin
     id 29
     name rfingers
     direction -1 -4.48423e-011 3.63103e-026   
     length 0.247847   
     axis -2.33008e-014 -90 -90   XYZ
    dof rx
    limits (0.0 90.0)
  end
  begin
     id 30
     name rthumb
     direction -0.707107 -6.34802e-011 0.707107   
     length 0.35586   
     axis -90 -45 -5.69224e-014   XYZ
    dof rx rz
    limits (-45.0 45.0)
           (-45.0 45.0)
  end
:hierarchy
  begin
    root lhipjoint rhipjoint lowerback
    lhipjoint lfemur
    lfemur ltibia
    ltibia lfoot
    lfoot ltoes
    rhipjoint rfemur
    rfemur rtibia
    rtibia rfoot
    rfoot rtoes
    lowerback upperback
    upperback thorax
    thorax lowerneck lclavicle rclavicle
    lowerneck upperneck
    upperneck head
    lclavicle lhumerus
    lhumerus lradius
    lradius lwrist
    lwrist lhand lthumb
    lhand lfingers
    rclavicle rhumerus
    rhumerus rradius
    rradius rwrist
    rwrist rhand rthumb
    rhand rfingers
  end

#!OML:ASF H:\Terrain\Patient Classification 1\Animal1\Tuesday\Animal1.ASF
:FULLY-SPECIFIED
:DEGREES
747
root 9.67944 16.792 2.64446 5.435 -18.2595 2.35873
lowerback -6.62726 -1.05184 -1.19286
upperback -0.838344 -1.34769 0.95305
thorax 2.90051 -0.69033 1.53052
lowerneck 14.2921 -1.73775 -9.59935
upperneck -3.95288 -3.34215 9.27889
head -3.16455 -1.97656 4.63637
rclavicle -3.46631e-015 2.90226e-014
rhumerus -37.0508 13.9925 -94.2138
rradius 16.8771
rwrist -35.2559
rhand -6.25366 16.065
rfingers 7.12502
rthumb 19.5885 -12.9681
lclavicle -3.46631e-015 2.90226e-014
lhumerus -41.2958 32.8972 68.4918
lradius 11.4838
lwrist -34.9486
lhand 33.925 38.3674
lfingers 7.12502
lthumb 57.1969 54.7882
rfemur -14.0967 11.0083 26.1106
rtibia 23.6182
rfoot -35.8302 -39.9403
rtoes 47.139
lfemur -12.8971 -6.62221 -24.5657
ltibia 20.7562
lfoot -20.5074 30.5362
ltoes 27.66
748
root 9.67992 16.7912 2.64265 5.49212 -18.2517 2.30375
lowerback -6.67238 -1.06879 -1.15732
upperback -0.84945 -1.37248 0.952993
thorax 2.91432 -0.702308 1.50755
lowerneck 14.2698 -1.71591 -9.52649
upperneck -3.91949 -3.29951 9.28244
head -3.15639 -1.95663 4.6222
rclavicle -2.12575e-014 7.55382e-015
rhumerus -37.0182 14.1593 -94.3238
rradius 16.8009
rwrist -35.294
rhand -6.1829 16.0579
rfingers 7.12502
rthumb 19.6565 -12.9683
lclavicle -2.12575e-014 7.55382e-015
lhumerus -41.3108 32.7729 68.5306
lradius 11.5038
lwrist -34.7953
lhand 33.7814 38.5251
lfingers 7.12502
lthumb 57.0706 55.0521
rfemur -14.1038 11.0686 26.1556
rtibia 23.542
rfoot -35.5273 -40.0666
rtoes 47.0401
lfemur -12.9918 -6.63663 -24.4963
ltibia 20.8329
lfoot -20.7555 30.4692
ltoes 28.212
749
root 9.67914 16.7911 2.63944 5.55896 -18.2365 2.13027
lowerback -6.70828 -1.0738 -1.01289
upperback -0.828471 -1.39074 0.99186
thorax 2.95424 -0.71033 1.46398
lowerneck 14.2038 -1.71243 -9.46379
upperneck -3.91035 -3.28029 9.25827
head -3.14642 -1.94558 4.6017
rclavicle -6.02939e-014 9.54166e-015
rhumerus -36.9957 14.3751 -94.4587
rradius 16.8085
rwrist -35.5495
rhand -6.40102 16.3393
rfingers 7.12502
rthumb 19.4468 -12.7082
lclavicle -6.02939e-014 9.54166e-015
lhumerus -41.2793 32.7491 68.5421
lradius 11.5147
lwrist -34.7873
lhand 33.7671 38.7873
lfingers 7.12502
lthumb 57.0581 55.3248
rfemur -14.0982 11.151 26.3222
rtibia 23.5018
rfoot -35.8034 -39.9388
rtoes 46.8174
lfemur -13.0545 -6.56958 -24.3191
ltibia 20.8772
lfoot -20.3153 30.6858
ltoes 26.9414
750
root 9.6786 16.7921 2.63659 5.60943 -18.2109 2.05351
lowerback -6.71477 -1.05969 -0.953987
upperback -0.852756 -1.37671 1.00758
thorax 2.93132 -0.702525 1.44853
lowerneck 14.3229 -1.71484 -9.45064
upperneck -3.99906 -3.28761 9.24435
head -3.1918 -1.95075 4.59975
rclavicle 2.00027e-014 -1.19271e-015
rhumerus -37.0328 14.4216 -94.4972
rradius 16.8203
rwrist -35.7283
rhand -6.49729 16.6377
rfingers 7.12502
rthumb 19.3543 -12.4191
lclavicle 2.00027e-014 -1.19271e-015
lhumerus -41.297 32.6903 68.5574
lradius 11.5399
lwrist -34.7668
lhand 33.8608 38.657
lfingers 7.12502
lthumb 57.1404 55.1254
rfemur -14.1354 11.1517 26.3971
rtibia 23.493
rfoot -35.9446 -39.8842
rtoes 46.4484
lfemur -13.1189 -6.53961 -24.2402
ltibia 20.9004
lfoot -19.85 30.8973
ltoes 25.6596
751
root 9.67793 16.7928 2.63525 5.59862 -18.2091 2.21097
lowerback -6.71867 -1.03131 -1.08972
upperback -0.895304 -1.32663 0.935796
thorax 2.88926 -0.678253 1.45571
lowerneck 14.3921 -1.72388 -9.48329
upperneck -3.99703 -3.30674 9.31087
head -3.19893 -1.96462 4.62862
rclavicle 4.17572e-014 -3.97569e-016
rhumerus -37.058 14.3933 -94.5183
rradius 16.8457
rwrist -35.841
rhand -6.46301 16.6609
rfingers 7.12502
rthumb 19.3872 -12.3926
lclavicle 4.17572e-014 -3.97569e-016
lhumerus -41.3853 32.6061 68.5203
lradius 11.5954
lwrist -34.8583
lhand 33.9205 38.6661
lfingers 7.12502
lthumb 57.1929 55.0903
rfemur -14.2102 11.0781 26.2401
rtibia 23.5144
rfoot -35.504 -40.1198
rtoes 46.0622
lfemur -13.1647 -6.60302 -24.3838
ltibia 20.9002
lfoot -20.1336 30.783
ltoes 26.3987
